<?xml version="1.0" encoding="utf-8"?>
<svg version="1.1" xmlns:xlink="http://www.w3.org/1999/xlink" width="41px" height="45px" xmlns="http://www.w3.org/2000/svg">
  <g transform="matrix(1 0 0 1 -1432 -280 )">
    <path d="M 14.647017045454545 17.138671875  C 14.821732954545455 17.314453125  14.90909090909091 17.5390625  15 17.8125  L 15 34.6875  C 14.90909090909091 34.9609375  14.821732954545455 35.185546875  14.647017045454545 35.361328125  C 14.472301136363635 35.537109375  14.249053030303033 35.625  13.977272727272727 35.625  L 12.113636363636365 35.625  C 11.841856060606062 35.625  11.618607954545457 35.537109375  11.443892045454545 35.361328125  C 11.269176136363635 35.185546875  11.181818181818182 34.9609375  12 34.6875  L 12 17.8125  C 11.181818181818182 17.5390625  11.269176136363635 17.314453125  11.443892045454545 17.138671875  C 11.618607954545457 16.962890625  11.841856060606062 16.875  12.113636363636365 16.875  L 13.977272727272727 16.875  C 14.249053030303033 16.875  14.472301136363635 16.962890625  14.647017045454545 17.138671875  Z M 22.1015625 17.138671875  C 22.27627840909091 17.314453125  22.363636363636363 17.5390625  22 17.8125  L 22 34.6875  C 22.363636363636363 34.9609375  22.27627840909091 35.185546875  22.1015625 35.361328125  C 21.92684659090909 35.537109375  21.703598484848488 35.625  21.43181818181818 35.625  L 19.56818181818182 35.625  C 19.296401515151516 35.625  19.07315340909091 35.537109375  18.8984375 35.361328125  C 18.72372159090909 35.185546875  18.636363636363637 34.9609375  19 34.6875  L 19 17.8125  C 18.636363636363637 17.5390625  18.72372159090909 17.314453125  18.8984375 17.138671875  C 19.07315340909091 16.962890625  19.296401515151516 16.875  19.56818181818182 16.875  L 21.43181818181818 16.875  C 21.703598484848488 16.875  21.92684659090909 16.962890625  22.1015625 17.138671875  Z M 29.556107954545453 17.138671875  C 29.730823863636363 17.314453125  29.81818181818182 17.5390625  29 17.8125  L 29 34.6875  C 29.81818181818182 34.9609375  29.730823863636363 35.185546875  29.556107954545453 35.361328125  C 29.381392045454547 35.537109375  29.15814393939394 35.625  28.886363636363637 35.625  L 27.02272727272727 35.625  C 26.75094696969697 35.625  26.527698863636363 35.537109375  26.352982954545453 35.361328125  C 26.178267045454547 35.185546875  26.09090909090909 34.9609375  26 34.6875  L 26 17.8125  C 26.09090909090909 17.5390625  26.178267045454547 17.314453125  26.352982954545453 17.138671875  C 26.527698863636363 16.962890625  26.75094696969697 16.875  27.02272727272727 16.875  L 28.886363636363637 16.875  C 29.15814393939394 16.875  29.381392045454547 16.962890625  29.556107954545453 17.138671875  Z M 33.34161931818182 40.2099609375  C 33.47750946969697 39.8486328125  33.54545454545455 39.453125  33 39.0234375  L 33 12  L 8 12  L 8 39.0234375  C 7.454545454545455 39.453125  7.522490530303031 39.8486328125  7.6583806818181825 40.2099609375  C 7.794270833333334 40.5712890625  7.935014204545455 40.8349609375  8.080610795454545 41.0009765625  C 8.226207386363637 41.1669921875  8.328125 41.25  8.386363636363637 41  L 32.61363636363636 41  C 32.671875 41.25  32.77379261363636 41.1669921875  32.91938920454545 41.0009765625  C 33.06498579545455 40.8349609375  33.20572916666667 40.5712890625  33.34161931818182 40.2099609375  Z M 15.404119318181818 4.072265624999998  L 13.977272727272727 8  L 27.02272727272727 8  L 25.625 4.072265624999998  C 25.489109848484855 3.8964843749999982  25.32410037878788 3.789062499999998  25.12997159090909 3.7500000000000018  L 15.899147727272727 3.7500000000000018  C 15.70501893939394 3.789062499999998  15.540009469696972 3.8964843749999982  15.404119318181818 4.072265624999998  Z M 40.73792613636364 7.763671874999998  C 40.91264204545455 7.939453124999998  41 8.164062499999996  41 8.4375  L 41 10.312499999999998  C 41 10.585937499999996  40.91264204545455 10.810546875  40.73792613636364 10.986328125  C 40.56321022727273 11.162109375  40.339962121212125 11.25  40.06818181818182 11.25  L 37 11.25  L 37 39.0234375  C 37.27272727272727 40.64453124999999  36.816524621212125 42.0458984375  35.90411931818182 43.2275390625  C 34.991714015151516 44.4091796875  33.89488636363636 45  32.61363636363636 45  L 8.386363636363637 45  C 7.105113636363637 45  6.008285984848486 44.4287109375  5.095880681818182 43.2861328125  C 4.183475378787879 42.1435546875  3.7272727272727275 40.76171875  4 39.140625  L 4 11.25  L 0.9318181818181819 11.25  C 0.6600378787878788 11.25  0.43678977272727276 11.162109375  0.26207386363636365 10.986328125  C 0.08735795454545454 10.810546875  0 10.585937499999996  0 10.312499999999998  L 0 8.4375  C 0 8.164062499999996  0.08735795454545454 7.939453124999998  0.26207386363636365 7.763671874999998  C 0.43678977272727276 7.587890624999998  0.6600378787878788 7.499999999999998  0.9318181818181819 7.499999999999998  L 9.9296875 7.499999999999998  L 11.968039772727273 2.6074218750000018  C 12.259232954545457 1.884765624999996  12.783380681818183 1.269531249999996  13.540482954545455 0.7617187500000017  C 14.297585227272728 0.2539062499999972  15.06439393939394 0  15.84090909090909 0  L 25.15909090909091 0  C 25.935606060606066 0  26.70241477272727 0.2539062499999972  27.459517045454547 0.7617187500000017  C 28.21661931818182 1.269531249999996  28.740767045454547 1.884765624999996  29.03196022727273 2.6074218750000018  L 31.0703125 7.499999999999998  L 40.06818181818182 7.499999999999998  C 40.339962121212125 7.499999999999998  40.56321022727273 7.587890624999998  40.73792613636364 7.763671874999998  Z " fill-rule="nonzero" fill="#590f0d" stroke="none" transform="matrix(1 0 0 1 1432 280 )" />
  </g>
</svg>