<?xml version="1.0" encoding="utf-8"?>
<svg version="1.1" xmlns:xlink="http://www.w3.org/1999/xlink" width="42px" height="50px" xmlns="http://www.w3.org/2000/svg">
  <g>
    <path d="M 37 45.27428949107733  L 37 5  L 5 5  L 5 45.27428949107733  L 18.079687500000002 31.857237276933247  L 21 29.048248512888296  L 23.9203125 31.857237276933247  L 37 45.27428949107733  Z M 3.80625 0  L 38.19375 0  C 38.696875000000006 0  39.178125 0.0991407799074695  39.637499999999996 0.2974223397224085  C 40.359375 0.5838290372328636  40.93359375 1.0354703679224475  41.360156249999996 1.6523463317911435  C 41.78671875 2.269222295659834  42 2.952192112800173  42 3.7012557832121598  L 42 46.29874421678784  C 42 47.04780788719983  41.78671875 47.73077770434016  41.360156249999996 48.34765366820886  C 40.93359375 48.96452963207755  40.359375 49.416170962767126  39.637499999999996 49.70257766027759  C 39.221875000000004 49.878827935668646  38.740625 49.96695307336418  38.19375 49.96695307336418  C 37.143750000000004 49.96695307336418  36.235937500000006 49.61445252258206  35.4703125 48.90945142101785  L 21 34.897554527428944  L 6.5296875 48.90945142101785  C 5.7421875 49.63648380700595  4.8343750000000005 50  3.80625 50  C 3.303125 50  2.821875 49.90085922009253  2.3625000000000003 49.70257766027759  C 1.640625 49.416170962767126  1.06640625 48.96452963207755  0.6398437499999999 48.34765366820886  C 0.21328125 47.73077770434016  0 47.04780788719983  0 46.29874421678784  L 0 3.7012557832121598  C 0 2.952192112800173  0.21328125 2.269222295659834  0.6398437499999999 1.6523463317911435  C 1.06640625 1.0354703679224475  1.640625 0.5838290372328636  2.3625000000000003 0.2974223397224085  C 2.821875 0.0991407799074695  3.303125 0  3.80625 0  Z " fill-rule="nonzero" fill="#000000" stroke="none" />
  </g>
</svg>