<?xml version="1.0" encoding="utf-8"?>
<svg version="1.1" xmlns:xlink="http://www.w3.org/1999/xlink" width="46px" height="50px" xmlns="http://www.w3.org/2000/svg">
  <g transform="matrix(1 0 0 1 -668 0 )">
    <path d="M 0 0.06020469596628719  L 2.42578125 0.03010234798314082  L 4.04296875 0.8428657435279929  C 4.282552083333333 0.9432069034717994  6.388888888888889 0.9933774834437081  10.361979166666666 0.9933774834437081  C 11.240451388888891 0.9933774834437081  12.558159722222225 0.9733092514549457  14.315104166666668 0.9331727874774209  C 16.072048611111114 0.8930363234998961  17.389756944444446 0.8729680915111393  18.268229166666668 0.8729680915111393  C 19.665798611111114 0.8729680915111393  22.126519097222225 0.8629339755167498  25.650390625 0.8428657435279929  C 29.17426215277778 0.8227975115392305  32.21397569444445 0.8177804535420385  34.76953125 0.8278145695364225  C 37.325086805555564 0.8378486855308009  39.790798611111114 0.8830022075055177  42.166666666666664 0.9632751354605673  C 42.825520833333336 0.9833433674493242  43.384548611111114 0.6722857716235153  43.84375 0.03010234798314082  L 45.1015625 0  C 45.181423611111114 0  45.321180555555564 0.005017057997186436  45.520833333333336 0.01505117399157041  C 45.720486111111114 0.025085289985948833  45.860243055555564 0.03010234798314082  45.940104166666664 0.03010234798314082  C 45.98003472222222 2.277744330724457  46 5.64920730483644  46 10.144491270319083  C 46 11.749949829420025  45.95008680555555 12.84366847280754  45.850260416666664 13.425647200481638  C 45.071614583333336 13.7066024483243  44.39279513888889 13.887216536223157  43.813802083333336 13.967489464178207  C 43.31467013888889 13.084487256672684  42.77560763888889 11.800120409391933  42.196614583333336 10.114388922335943  C 42.13671875 9.933774834437086  42.02690972222223 9.457154324703987  41.8671875 8.684527393136666  C 41.70746527777778 7.911900461569332  41.55772569444445 7.174392935982338  41.41796875 6.4720048163756765  C 41.278211805555564 5.769616696769009  41.208333333333336 5.408388520971297  41.208333333333336 5.3883202889825395  C 41.008680555555564 5.127433273128634  40.739149305555564 4.9367850692354  40.399739583333336 4.8163756773028314  C 40.29991319444445 4.776239213325301  39.64105902777778 4.756170981336544  38.423177083333336 4.756170981336544  C 37.82421875 4.756170981336544  36.895833333333336 4.74613686534216  35.638020833333336 4.726068633353403  C 34.380208333333336 4.706000401364635  33.35199652777778 4.695966285370257  32.553385416666664 4.695966285370257  C 31.75477430555556 4.695966285370257  30.81640625 4.716034517359013  29.73828125 4.756170981336544  C 28.660156250000004 4.7963074453140635  27.70182291666667 4.866546257274729  26.86328125 4.96688741721854  C 26.683593750000004 6.59241420830825  26.603732638888893 7.957053983544049  26.623697916666664 9.060806742925948  L 26.653645833333336 13.636363636363635  L 26.653645833333336 12.071041541240218  C 26.653645833333336 13.17479430062211  26.66362847222222 14.720048163756772  26.68359375 16.70680313064419  C 26.70355902777778 18.69355809753161  26.718532986111114 20.49969897652017  26.728515625 22.125225767609873  C 26.738498263888893 23.750752558699578  26.743489583333336 25.285972305839856  26.743489583333336 26.730885009030704  C 26.743489583333336 27.051976720850888  26.718532986111114 27.769416014449128  26.668619791666664 28.88320288982541  C 26.61870659722223 29.996989765201686  26.61870659722223 30.915111378687538  26.668619791666664 31.63756773028296  C 26.718532986111114 32.360024081878386  26.84331597222222 33.052378085490666  27.04296875 33.71462974111981  C 27.841579861111114 34.136062612883805  29.079427083333336 34.56251254264499  30.756510416666664 34.99397953040337  C 32.43359375 35.42544651816175  33.631510416666664 35.80172586795103  34.350260416666664 36.12281757977122  C 34.450086805555564 36.92554685932169  34.5 37.42725265904073  34.5 37.62793497892836  C 34.5 37.90889022677102  34.470052083333336 38.19987959060806  34.41015625 38.5009030704395  L 33.391927083333336 38.53100541842264  C 31.87456597222223 38.57114188240016  29.69835069444445 38.49086895444512  26.86328125 38.29018663455749  C 24.028211805555557 38.089504314669874  21.961805555555557 37.98916315472607  20.6640625 37.98916315472607  C 19.665798611111114 37.98916315472607  18.15842013888889 38.079470198675494  16.141927083333332 38.260084286574354  C 14.12543402777778 38.44069837447321  12.608072916666668 38.53100541842264  11.58984375 38.53100541842264  C 11.529947916666668 37.50752558699578  11.5 36.98575155528798  11.5 36.96568332329922  L 11.5 36.694762191450934  C 11.839409722222225 36.15291992775437  12.45334201388889 35.72145293999598  13.341796875 35.4003612281758  C 14.23025173611111 35.0792695163556  15.213541666666668 34.78828015251857  16.291666666666668 34.527393136664664  C 17.369791666666668 34.26650612081076  18.1484375 33.99558498896247  18.627604166666668 33.71462974111981  C 18.767361111111114 33.39353802929962  18.882161458333332 32.65101344571543  18.972005208333332 31.487055990367253  C 19.061848958333332 30.323098535019067  19.121744791666668 28.863134657836643  19.151692708333332 27.10716435881999  C 19.181640625 25.351194059803326  19.196614583333332 23.795906080674296  19.196614583333332 22.44130042143287  C 19.196614583333332 21.08669476219145  19.19162326388889 19.54645795705398  19.181640625 17.82059000602047  C 19.171657986111114 16.09472205498695  19.166666666666668 15.201685731487057  19.166666666666668 15.141481035520771  C 19.166666666666668 15.001003411599434  19.141710069444446 14.785269917720246  19.091796875 14.494280553883204  C 19.041883680555557 14.203291190046151  19.016927083333332 13.977523580172585  19.016927083333332 13.816977724262491  C 19.016927083333332 13.67650010034116  19.021918402777782 13.234998996588399  19.031901041666668 12.492474413004212  C 19.041883680555557 11.749949829420025  19.051866319444446 11.017459361830223  19.061848958333332 10.2950030102348  C 19.071831597222225 9.572546658639375  19.071831597222225 8.804936785069234  19.061848958333332 7.992173389524382  C 19.051866319444446 7.1794099939795295  19.021918402777782 6.502107164358822  18.972005208333332 5.960264900662255  C 18.92209201388889 5.418422636965681  18.857204861111114 5.097330925145494  18.77734375 4.996989765201687  C 18.557725694444446 4.756170981336544  16.940538194444446 4.635761589403975  13.92578125 4.635761589403975  C 13.10720486111111 4.635761589403975  11.480034722222223 4.771222155328115  9.044270833333334 5.0421432871763985  C 6.608506944444445 5.313064419024682  5.230902777777779 5.558900260887012  4.911458333333333 5.779650812763398  C 4.532118055555556 6.020469596628536  4.192708333333333 6.737908890226768  3.893229166666667 7.9319686935581  C 3.59375 9.126028496889422  3.279296875 10.24483243026289  2.949869791666667 11.288380493678506  C 2.6204427083333335 12.331928557094113  2.196180555555556 12.873770820790686  1.6770833333333335 12.91390728476821  C 0.8385416666666667 12.3921332530604  0.2795138888888889 11.950632149307644  0 11.589403973509931  L 0 0.06020469596628719  Z M 38.617838541666664 38.93738711619507  C 38.767578125 38.72667068031306  38.97222222222223 38.62131246237207  39.231770833333336 38.62131246237207  C 39.471354166666664 38.62131246237207  39.890625 38.81697772426249  40.489583333333336 39.208308248043345  C 41.088541666666664 39.5996387718242  41.66254340277778 40.01605458559101  42.211588541666664 40.45755568934377  C 42.760633680555564 40.899056793096534  43.35460069444445 41.390728476821195  43.993489583333336 41.93257074051776  C 44.63237847222223 42.47441300421433  44.99175347222223 42.775436484045755  45.071614583333336 42.83564118001204  C 45.590711805555564 43.25707405177604  45.850260416666664 43.7487457355007  45.850260416666664 44.31065623118603  C 45.850260416666664 44.87256672687137  45.590711805555564 45.36423841059602  45.071614583333336 45.78567128236003  C 44.99175347222223 45.84587597832631  44.63237847222223 46.14689945815773  43.993489583333336 46.688741721854306  C 43.35460069444445 47.23058398555087  42.760633680555564 47.72225566927554  42.211588541666664 48.1637567730283  C 41.66254340277778 48.60525787678106  41.088541666666664 49.021673690547864  40.489583333333336 49.413004214328716  C 39.890625 49.804334738109574  39.471354166666664 50  39.231770833333336 50  C 38.97222222222223 50  38.767578125 49.894641782059004  38.617838541666664 49.683925346177  C 38.468098958333336 49.473208910295  38.36827256944445 49.18723660445515  38.318359375 48.82600842865744  C 38.268446180555564 48.464780252859725  38.243489583333336 48.12863736704796  38.243489583333336 47.81757977122216  C 38.243489583333336 47.50652217539635  38.258463541666664 47.17539634758178  38.288411458333336 46.82420228777845  C 38.318359375 46.47300822797511  38.333333333333336 46.27734296608468  38.333333333333336 46  L 7.666666666666666 46  C 7.666666666666666 46.27734296608468  7.681640625 46.47300822797511  7.711588541666666 46.82420228777845  C 7.741536458333334 47.17539634758178  7.756510416666666 47.50652217539635  7.756510416666666 47.81757977122216  C 7.756510416666666 48.12863736704796  7.731553819444445 48.464780252859725  7.681640625 48.82600842865744  C 7.631727430555555 49.18723660445515  7.531901041666666 49.473208910295  7.382161458333334 49.683925346177  C 7.232421875 49.894641782059004  7.027777777777779 50  6.768229166666666 50  C 6.528645833333334 50  6.109375 49.804334738109574  5.510416666666667 49.413004214328716  C 4.911458333333333 49.021673690547864  4.337456597222222 48.60525787678106  3.788411458333333 48.1637567730283  C 3.239366319444445 47.72225566927554  2.645399305555556 47.23058398555087  2.0065104166666665 46.688741721854306  C 1.367621527777778 46.14689945815773  1.008246527777778 45.84587597832631  0.9283854166666667 45.78567128236003  C 0.4092881944444444 45.36423841059602  0.14973958333333334 44.87256672687137  0.14973958333333334 44.31065623118603  C 0.14973958333333334 43.7487457355007  0.4092881944444444 43.25707405177604  0.9283854166666667 42.83564118001204  C 1.008246527777778 42.775436484045755  1.367621527777778 42.47441300421433  2.0065104166666665 41.93257074051776  C 2.645399305555556 41.390728476821195  3.239366319444445 40.899056793096534  3.788411458333333 40.45755568934377  C 4.337456597222222 40.01605458559101  4.911458333333333 39.5996387718242  5.510416666666667 39.208308248043345  C 6.109375 38.81697772426249  6.528645833333334 38.62131246237207  6.768229166666666 38.62131246237207  C 7.027777777777779 38.62131246237207  7.232421875 38.72667068031306  7.382161458333334 38.93738711619507  C 7.531901041666666 39.14810355207706  7.631727430555555 39.434075857916916  7.681640625 39.79530403371463  C 7.731553819444445 40.15653220951234  7.756510416666666 40.4926750953241  7.756510416666666 40.80373269114991  C 7.756510416666666 41.11479028697572  7.741536458333334 41.44591611479028  7.711588541666666 41.79711017459362  C 7.681640625 42.148304234396946  7.666666666666666 42.34396949628738  7.666666666666666 42  L 38.333333333333336 42  C 38.333333333333336 42.34396949628738  38.318359375 42.148304234396946  38.288411458333336 41.79711017459362  C 38.258463541666664 41.44591611479028  38.243489583333336 41.11479028697572  38.243489583333336 40.80373269114991  C 38.243489583333336 40.4926750953241  38.268446180555564 40.15653220951234  38.318359375 39.79530403371463  C 38.36827256944445 39.434075857916916  38.468098958333336 39.14810355207706  38.617838541666664 38.93738711619507  Z " fill-rule="nonzero" fill="#000000" stroke="none" transform="matrix(1 0 0 1 668 0 )" />
  </g>
</svg>