<?xml version="1.0" encoding="utf-8"?>
<svg version="1.1" xmlns:xlink="http://www.w3.org/1999/xlink" width="75px" height="75px" xmlns="http://www.w3.org/2000/svg">
  <g transform="matrix(1 0 0 1 -1561 -22 )">
    <path d="M 1598.5 22  C 1619.5 22  1636 38.5  1636 59.5  C 1636 80.5  1619.5 97  1598.5 97  C 1577.5 97  1561 80.5  1561 59.5  C 1561 38.5  1577.5 22  1598.5 22  Z " fill-rule="nonzero" fill="#ffffff" stroke="none" />
    <path d="M 1598.5 22.5  C 1619.22 22.5  1635.5 38.78  1635.5 59.5  C 1635.5 80.22  1619.22 96.5  1598.5 96.5  C 1577.78 96.5  1561.5 80.22  1561.5 59.5  C 1561.5 38.78  1577.78 22.5  1598.5 22.5  Z " stroke-width="1" stroke="#797979" fill="none" />
  </g>
</svg>