<?xml version="1.0" encoding="utf-8"?>
<svg version="1.1" xmlns:xlink="http://www.w3.org/1999/xlink" width="50px" height="48px" xmlns="http://www.w3.org/2000/svg">
  <g transform="matrix(1 0 0 1 -916 -272 )">
    <path d="M 34.16466346153847 29.39886578449906  L 35.637019230769226 27.977315689981097  L 43.359375 20.415879017013232  L 32.66225961538461 18.843100189035916  L 30.679086538461537 18.5406427221172  L 29.77764423076923 16.725897920604915  L 25 6.986767485822304  L 25 36.113421550094515  L 26.772836538461537 37.051039697542535  L 36.328125 42.13232514177694  L 34.52524038461539 31.395085066162572  L 34.16466346153847 29.39886578449906  Z M 49.93990384615385 18.253308128544425  C 50.120192307692314 18.807813484562065  49.8798076923077 19.407687460617513  49.21875 20.052930056710775  L 38.31129807692308 30.75992438563327  L 40.89543269230769 45.882797731569  C 40.99559294871795 46.54820415879017  40.9354967948718 47.067422810333966  40.715144230769226 47.44045368620038  C 40.49479166666667 47.81348456206679  40.1542467948718 48  39.69350961538461 48  C 39.352964743589745 48  38.95232371794872 47.87901701323251  38.49158653846153 47.637051039697546  L 25 40.49905482041588  L 11.508413461538462 47.637051039697546  C 11.047676282051283 47.87901701323251  10.647035256410257 48  10.306490384615383 48  C 9.845753205128206 48  9.505208333333334 47.81348456206679  9.28485576923077 47.44045368620038  C 9.064503205128206 47.067422810333966  9.004407051282051 46.54820415879017  9.104567307692307 45.882797731569  L 11.688701923076923 30.75992438563327  L 0.7512019230769231 20.052930056710775  C 0.110176282051282 19.407687460617513  -0.1201923076923077 18.807813484562065  0.06009615384615385 18.253308128544425  C 0.2403846153846154 17.698802772526776  0.78125 17.35097668557026  1.6826923076923077 17.20982986767486  L 16.766826923076923 15.00189035916824  L 23.527644230769234 1.2400756143667273  C 23.92828525641026 0.41335853812224066  24.419070512820515 0  25 0  C 25.560897435897438 0  26.051682692307693 0.41335853812224066  26.47235576923077 1.2400756143667273  L 33.23317307692308 15.00189035916824  L 48.31730769230769 17.20982986767486  C 49.21875000000001 17.35097668557026  49.759615384615394 17.698802772526776  49.93990384615385 18.253308128544425  Z " fill-rule="nonzero" fill="#d9a520" stroke="none" transform="matrix(1 0 0 1 916 272 )" />
  </g>
</svg>