<?xml version="1.0" encoding="utf-8"?>
<svg version="1.1" xmlns:xlink="http://www.w3.org/1999/xlink" width="29px" height="28px" xmlns="http://www.w3.org/2000/svg">
  <g transform="matrix(1 0 0 1 -23 -92 )">
    <path d="M 28.024038461538463 10.039067422810334  C 28.67467948717949 10.144927536231886  29 10.415458937198068  29 10.850661625708886  C 29 11.10943079185045  28.848958333333336 11.391724427641249  28.546875 11.697542533081286  L 22.220552884615387 17.943289224952743  L 23.719350961538463 26.76496534341525  C 23.730969551282055 26.847300987187566  23.736778846153847 26.96492333543373  23.736778846153847 27.11783238815375  C 23.736778846153847 27.3648393194707  23.67578125 27.573618987607645  23.55378605769231 27.744171392564585  C 23.431790865384613 27.91472379752153  23.254607371794872 28  23.022235576923077 28  C 22.801482371794872 28  22.569110576923077 27.9294265910523  22.32512019230769 27.7882797731569  L 14.5 23.624448645242598  L 6.6748798076923075 27.7882797731569  C 6.419270833333334 27.9294265910523  6.186899038461538 28  5.9777644230769225 28  C 5.733774038461538 28  5.55078125 27.91472379752153  5.4287860576923075 27.744171392564585  C 5.306790865384616 27.573618987607645  5.245793269230769 27.3648393194707  5.245793269230769 27.11783238815375  C 5.245793269230769 27.04725897920605  5.2574118589743595 26.92963663095988  5.280649038461538 26.76496534341525  L 6.779447115384616 17.943289224952743  L 0.4356971153846154 11.697542533081286  C 0.14523237179487178 11.379962192816635  0 11.097668557025836  0 10.850661625708886  C 0 10.415458937198068  0.3253205128205128 10.144927536231886  0.9759615384615384 10.039067422810334  L 9.724759615384615 8.751102709514807  L 13.646033653846155 0.7233774417139243  C 13.866786858974361 0.24112581390464038  14.151442307692307 0  14.5 0  C 14.848557692307692 0  15.13321314102564 0.24112581390464038  15.353966346153847 0.7233774417139243  L 19.275240384615387 8.751102709514807  L 28.024038461538463 10.039067422810334  Z " fill-rule="nonzero" fill="#000000" stroke="none" transform="matrix(1 0 0 1 23 92 )" />
  </g>
</svg>